<svg height='200' width='200'  fill="#550202" xmlns="http://www.w3.org/2000/svg" xmlns:xlink="http://www.w3.org/1999/xlink" version="1.1" x="0px" y="0px" viewBox="0 0 100 100" style="enable-background:new 0 0 100 100;" xml:space="preserve"><style type="text/css">
	.st0{fill:#550202;}
</style><path class="st0" d="M80.1,61.3V50.2c0-4-2.8-7.4-6.5-8.3v-8.8c0-3.8-3.1-6.9-6.9-6.9H54.1c0.8-0.8,1.9-1.4,3.2-2.1  c1.5-0.8,3-1.5,4-2.8c1.4-1.7,1.8-4.2,1.2-6.3c-0.7-2.2-2.4-3.9-4.5-4.3c-1.8-0.4-3.7,0.6-4.9,1.9c-1.3-1.3-3.1-2.3-4.9-1.9  c-2,0.4-3.8,2.1-4.5,4.3c-0.6,2.1-0.2,4.6,1.2,6.3c1,1.2,2.5,2,4,2.8c1.2,0.6,2.4,1.3,3.2,2.1H37.6c-3.8,0-6.9,3.1-6.9,6.9v8.8  c-3.7,0.9-6.5,4.3-6.5,8.3v11.1c-4.4,1.3-7.7,5.5-7.7,10.3v15.7h71.3V71.6C87.8,66.8,84.6,62.6,80.1,61.3z M49.5,22.7  c-1.4-0.7-2.7-1.4-3.5-2.4c-1-1.3-1.4-3.2-0.9-4.8c0.5-1.6,1.8-2.9,3.2-3.2c0.2,0,0.3-0.1,0.5-0.1c1.3,0,2.7,1,3.5,2.1l0.7,0.9  l0.7-0.9c0.9-1.2,2.5-2.3,4-2c1.5,0.3,2.8,1.6,3.2,3.2c0.5,1.6,0.1,3.6-0.9,4.8c-0.8,1-2.1,1.6-3.5,2.4C55.3,23.4,54,24,53,25  C52.1,24,50.8,23.4,49.5,22.7z M37.6,27.8h29.2c2.6,0,4.8,1.9,5.2,4.4c-0.7-0.3-1.6-0.5-2.8-0.5c-2.4,0-3.6,0.8-4.7,1.5  c-1,0.7-1.9,1.2-3.8,1.2c-1.9,0-2.8-0.6-3.8-1.2c-1.1-0.7-2.3-1.5-4.7-1.5c-2.4,0-3.6,0.8-4.7,1.5c-1,0.7-1.9,1.2-3.8,1.2  s-2.8-0.6-3.8-1.2c-1.1-0.7-2.3-1.5-4.7-1.5c-1.2,0-2.1,0.2-2.8,0.5C32.8,29.8,34.9,27.8,37.6,27.8z M32.3,41.7v-7.6  c0.7-0.4,1.6-0.7,2.9-0.7c1.9,0,2.8,0.6,3.8,1.2c1.1,0.7,2.3,1.5,4.7,1.5c2.4,0,3.6-0.8,4.7-1.5c1-0.7,1.9-1.2,3.8-1.2  c1.9,0,2.8,0.6,3.8,1.2c1.1,0.7,2.3,1.5,4.7,1.5c2.4,0,3.6-0.8,4.7-1.5c1-0.7,1.9-1.2,3.8-1.2c1.3,0,2.2,0.3,2.9,0.7v7.6h-0.4H32.8  H32.3z M32.8,43.3h38.8c3.8,0,6.9,3.1,6.9,6.9v1.3c-0.3,0-0.6,0.1-0.9,0.1c-1.9,0-2.8-0.6-3.8-1.2c-1.1-0.7-2.3-1.5-4.7-1.5  c-2.4,0-3.6,0.8-4.7,1.5c-1,0.7-1.9,1.2-3.8,1.2c-1.9,0-2.8-0.6-3.8-1.2c-1.1-0.7-2.3-1.5-4.7-1.5c-2.4,0-3.6,0.8-4.7,1.5  c-1,0.7-1.9,1.2-3.8,1.2s-2.8-0.6-3.8-1.2c-1.1-0.7-2.3-1.5-4.7-1.5s-3.6,0.8-4.7,1.5c-1,0.7-1.9,1.2-3.8,1.2c-0.3,0-0.6,0-0.9-0.1  v-1.3C25.8,46.4,28.9,43.3,32.8,43.3z M25.8,60.8v-7.7c0.3,0,0.6,0.1,0.9,0.1c2.4,0,3.6-0.8,4.7-1.5c1-0.7,1.9-1.2,3.8-1.2  S38,51,39,51.7c1.1,0.7,2.3,1.5,4.7,1.5c2.4,0,3.6-0.8,4.7-1.5c1-0.7,1.9-1.2,3.8-1.2c1.9,0,2.8,0.6,3.8,1.2  c1.1,0.7,2.3,1.5,4.7,1.5c2.4,0,3.6-0.8,4.7-1.5c1-0.7,1.9-1.2,3.8-1.2c1.9,0,2.8,0.6,3.8,1.2c1.1,0.7,2.3,1.5,4.7,1.5  c0.3,0,0.6,0,0.9,0v7.7H77H27.3H25.8z M27.3,62.5H77c4.1,0,7.6,2.7,8.8,6.5c-2.2,0.1-3.4,0.8-4.4,1.5c-1,0.7-1.9,1.2-3.8,1.2  c-1.9,0-2.8-0.6-3.8-1.2c-1.1-0.7-2.3-1.5-4.7-1.5c-2.4,0-3.6,0.8-4.7,1.5c-1,0.7-1.9,1.2-3.8,1.2c-1.9,0-2.8-0.6-3.8-1.2  c-1.1-0.7-2.3-1.5-4.7-1.5c-2.4,0-3.6,0.8-4.7,1.5c-1,0.7-1.9,1.2-3.8,1.2s-2.8-0.6-3.8-1.2c-1.1-0.7-2.3-1.5-4.7-1.5  s-3.6,0.8-4.7,1.5c-1,0.7-1.9,1.2-3.8,1.2s-2.8-0.6-3.8-1.2c-1-0.7-2.2-1.4-4.4-1.5C19.7,65.2,23.2,62.5,27.3,62.5z M86.2,85.7H18.1  V71.6c0-0.5,0.1-1,0.1-1.5v0.4c1.9,0,2.8,0.6,3.8,1.2c1.1,0.7,2.3,1.5,4.7,1.5c2.4,0,3.6-0.8,4.7-1.5c1-0.7,1.9-1.2,3.8-1.2  s2.8,0.6,3.8,1.2c1.1,0.7,2.3,1.5,4.7,1.5c2.4,0,3.6-0.8,4.7-1.5c1-0.7,1.9-1.2,3.8-1.2c1.9,0,2.8,0.6,3.8,1.2  c1.1,0.7,2.3,1.5,4.7,1.5c2.4,0,3.6-0.8,4.7-1.5c1-0.7,1.9-1.2,3.8-1.2c1.9,0,2.8,0.6,3.8,1.2c1.1,0.7,2.3,1.5,4.7,1.5  c2.4,0,3.6-0.8,4.7-1.5c1-0.7,1.9-1.2,3.8-1.2v-0.4c0.1,0.5,0.1,1,0.1,1.5V85.7z"></path></svg>