<svg height='200' width='200'  fill="#550202" xmlns="http://www.w3.org/2000/svg" xmlns:xlink="http://www.w3.org/1999/xlink" version="1.1" x="0px" y="0px" viewBox="0 0 100 100" style="enable-background:new 0 0 100 100;" xml:space="preserve"><g><path d="M73,23.8c-0.4-1.3-1.6-2.3-3-2.3H30c-1.4,0-2.6,0.9-3,2.3l-6.2,23.4h58.4L73,23.8z M28.9,24.3c0.1-0.4,0.6-0.8,1-0.8H70   c0.5,0,0.9,0.3,1,0.8l5.5,20.9H23.4L28.9,24.3z"></path><path d="M75.5,51.2c-4.3,0-7.7,3.5-7.7,7.7s3.5,7.7,7.7,7.7s7.7-3.5,7.7-7.7S79.8,51.2,75.5,51.2z M75.5,64.7   c-3.2,0-5.7-2.6-5.7-5.7s2.6-5.7,5.7-5.7s5.7,2.6,5.7,5.7S78.7,64.7,75.5,64.7z"></path><path d="M24.5,51.2c-4.3,0-7.7,3.5-7.7,7.7s3.5,7.7,7.7,7.7s7.7-3.5,7.7-7.7S28.8,51.2,24.5,51.2z M24.5,64.7   c-3.2,0-5.7-2.6-5.7-5.7s2.6-5.7,5.7-5.7s5.7,2.6,5.7,5.7S27.6,64.7,24.5,64.7z"></path><path d="M84.7,45.2H84L77.7,21c-0.7-2.5-3-4.4-5.6-4.5l-1.2-4.3c-0.5-1.8-2.1-3.1-4-3.1H53.3c-1.9,0-3.5,1.3-4,3.1l-1.2,4.3H28.4   c-2.8,0-5.3,1.9-6,4.5L16,45.2h-0.6c-2.8,0-5.2,2.2-5.2,5v26.2c0,2.8,2.3,5,5.2,5h1.3v5.8c0,2,1.8,3.6,4,3.6h7.9c2.2,0,4-1.6,4-3.6   v-5.8h34.8v5.8c0,2,1.8,3.6,4,3.6h7.9c2.2,0,4-1.6,4-3.6v-5.8h1.3c2.8,0,5.2-2.2,5.2-5V50.2C89.8,47.5,87.5,45.2,84.7,45.2z    M87.8,76.4c0,1.7-1.4,3-3.2,3h-3.3v7.8c0,0.9-0.9,1.6-2,1.6h-7.9c-1.1,0-2-0.7-2-1.6v-7.8H30.6v7.8c0,0.9-0.9,1.6-2,1.6h-7.9   c-1.1,0-2-0.7-2-1.6v-7.8h-3.3c-1.7,0-3.2-1.3-3.2-3V50.2c0-1.7,1.4-3,3.2-3h2.2l6.8-25.7c0.5-1.8,2.1-3,4.1-3h21.3l1.6-5.8   c0.3-0.9,1.1-1.6,2.1-1.6h13.5c1,0,1.8,0.7,2.1,1.6l1.6,5.8h1.2c1.9,0,3.6,1.2,4.1,3l6.8,25.7h2.2c1.7,0,3.2,1.3,3.2,3V76.4z"></path></g></svg>