<svg height='200' width='200'  fill="#550202" xmlns="http://www.w3.org/2000/svg" xmlns:xlink="http://www.w3.org/1999/xlink" version="1.1" x="0px" y="0px" viewBox="0 0 100 100" style="enable-background:new 0 0 100 100;" xml:space="preserve"><title>wedding</title><path d="M94.9,51.7c-0.6-7.2-4-14-9.5-18.7c-9.7-8.3-24.8-8.2-35.4,0.1C35.4,25,17,30.2,8.8,44.7s-2.9,33,11.6,41.1  c12.4,6.9,27.9,4.3,37.4-6.3c3,1.1,6.2,1.6,9.4,1.6c8.1,0.1,15.9-3.4,21.2-9.5C93.2,66.1,95.5,58.9,94.9,51.7z M40.9,87.1  c-15.3,3.1-30.2-6.7-33.3-21.9S14.3,35,29.5,31.8s30.2,6.7,33.3,21.9c0,0,0,0,0,0c3.2,15.1-6.4,30-21.5,33.2  C41.2,87,41.1,87.1,40.9,87.1L40.9,87.1z M64.8,53.4c-1.3-6.4-4.7-12.2-9.6-16.5c8-5.4,18.9-5,26,1c8.8,7.5,9.9,20.7,2.4,29.6  c-5.4,6.3-14,8.9-22,6.6C65.2,67.7,66.3,60.4,64.8,53.4L64.8,53.4z M86.9,70.3C80.3,78,69.1,81,59.2,77.9l1.7-2  c12.1,3.8,25-3,28.8-15.1c2.7-8.8-0.1-18.4-7.1-24.4c-7.9-6.7-20.1-7-28.9-0.8c-0.6-0.5-1.2-0.9-1.8-1.3c9.7-7.1,23.6-7.1,32.3,0.3  C94.7,43.6,96,59.6,86.9,70.3z M47.2,36.6C34.6,30,19,34.9,12.4,47.5s-1.7,28.2,10.9,34.8c12.6,6.6,28.2,1.7,34.8-10.9  c2.8-5.3,3.6-11.3,2.4-17.2C58.9,46.7,54,40.2,47.2,36.6z M53,74.6c-0.6-0.4-1.2-0.9-1.8-1.4c-10-8.5-11.8-23.2-4.3-33.9  c0.8,0.5,1.5,1,2,1.4c-6.8,9.7-5.1,23,3.9,30.7c0.6,0.5,1.2,1,1.8,1.4L53,74.6z M40,82.8c-12.9,2.7-25.4-5.6-28.1-18.5  s5.6-25.4,18.5-28.1c5-1,10.3-0.4,14.9,1.8C37,49.5,39,65.5,49.8,74.7c0.7,0.6,1.4,1.1,2.1,1.6C48.7,79.6,44.5,81.8,40,82.8z   M55.9,71.2c-0.6-0.4-1.3-0.9-1.9-1.4c-8.4-7.1-9.8-19.5-3.3-28.4C59.4,48.8,61.5,61.3,55.9,71.2z M48,27.5c0.3,0.2,0.8,0.2,1.2,0  c0.9-0.7,9-7,8.9-11.3c0-1.5-0.5-3-1.5-4.2c-1-1.1-2.5-1.7-4-1.6c-1.7,0.1-3.3,0.8-4.3,2.1c-1.2-1.2-2.8-1.9-4.5-1.8  c-1.5,0-3,0.7-3.9,1.9c-0.9,1.2-1.4,2.7-1.3,4.2C38.5,21.1,47.1,26.9,48,27.5z M41.2,13.9c0.6-0.7,1.5-1.2,2.4-1.2h0.2  c1.4,0,2.8,0.8,3.5,2.1c0.2,0.3,0.5,0.5,0.9,0.5c0.4,0,0.7-0.2,0.9-0.6c0.6-1.4,1.9-2.3,3.4-2.3c0.9-0.1,1.9,0.3,2.5,1  c0.7,0.8,1,1.8,1,2.8c0.1,2.3-4.3,6.7-7.5,9.2c-3.3-2.3-8.1-6.3-8.1-8.7C40.3,15.7,40.6,14.7,41.2,13.9L41.2,13.9z M27,23  c0.4,0.2,0.8,0,1.1-0.3c0.8-1,5-6.1,4.3-9c-0.2-1.1-0.9-2.1-1.8-2.7c-0.9-0.6-2.1-0.8-3.2-0.5c-1.1,0.3-2,1-2.6,1.9  c-1-0.5-2.1-0.7-3.2-0.4c-1.1,0.3-2,1-2.5,2c-0.5,1-0.6,2.1-0.3,3.2C19.6,20,25.8,22.5,27,23z M21,14.9c0.2-0.5,0.7-0.9,1.2-1  c0.2,0,0.4-0.1,0.6-0.1c0.7,0,1.3,0.3,1.8,0.8c0.4,0.4,1,0.5,1.4,0.1c0.2-0.1,0.3-0.3,0.3-0.6c0.2-0.9,0.8-1.6,1.7-1.8  c0.5-0.2,1.1-0.1,1.5,0.2c0.5,0.4,0.9,0.9,1,1.5c0.3,1.3-1.7,4.5-3.4,6.7c-2.6-1.1-5.9-2.9-6.2-4.2C20.7,16,20.7,15.4,21,14.9  L21,14.9z"></path></svg>