<svg height='200' width='200'  fill="#550202" xmlns:dc="http://purl.org/dc/elements/1.1/" xmlns:cc="http://creativecommons.org/ns#" xmlns:rdf="http://www.w3.org/1999/02/22-rdf-syntax-ns#" xmlns:svg="http://www.w3.org/2000/svg" xmlns="http://www.w3.org/2000/svg" xmlns:sodipodi="http://sodipodi.sourceforge.net/DTD/sodipodi-0.dtd" xmlns:inkscape="http://www.inkscape.org/namespaces/inkscape" viewBox="0 0 64.000001 64.000001" version="1.1" x="0px" y="0px"><g transform="translate(0,-988.36216)"><g transform="translate(192,-1.4853682e-5)" style="opacity:1"><path style="color:#000000;font-style:normal;font-variant:normal;font-weight:normal;font-stretch:normal;font-size:medium;line-height:normal;font-family:sans-serif;text-indent:0;text-align:start;text-decoration:none;text-decoration-line:none;text-decoration-style:solid;text-decoration-color:#000000;letter-spacing:normal;word-spacing:normal;text-transform:none;direction:ltr;block-progression:tb;writing-mode:lr-tb;baseline-shift:baseline;text-anchor:start;white-space:normal;clip-rule:nonzero;display:inline;overflow:visible;visibility:visible;opacity:1;isolation:auto;mix-blend-mode:normal;color-interpolation:sRGB;color-interpolation-filters:linearRGB;solid-color:#000000;solid-opacity:1;fill:#550202;fill-opacity:1;fill-rule:nonzero;stroke:none;stroke-width:0.99999988;stroke-linecap:round;stroke-linejoin:round;stroke-miterlimit:4;stroke-dasharray:none;stroke-dashoffset:0;stroke-opacity:1;color-rendering:auto;image-rendering:auto;shape-rendering:auto;text-rendering:auto;enable-background:accumulate" d="M 32.003906 4.6738281 C 31.441076 4.6738281 30.878692 4.88651 30.451172 5.3125 L 15.447266 20.261719 C 14.592196 21.113719 14.592196 22.509328 15.447266 23.361328 C 16.302296 24.213228 17.697704 24.213228 18.552734 23.361328 L 21.003906 20.919922 L 21.003906 29.373047 L 5.1972656 37.355469 C 4.1197856 37.899569 3.686415 39.227234 4.234375 40.302734 C 4.782345 41.377834 6.1080169 41.811578 7.1855469 41.267578 L 7.9960938 40.857422 L 7.9960938 58.5 A 0.50005 0.50005 0 0 0 8.4960938 59 L 21.496094 59 A 0.50004994 0.50004994 0 0 0 21.503906 59 L 42.503906 59 L 55.503906 59 A 0.50005 0.50005 0 0 0 56.003906 58.5 L 56.003906 40.857422 L 56.814453 41.267578 C 57.891983 41.811578 59.217655 41.377834 59.765625 40.302734 C 60.313585 39.227234 59.880214 37.899569 58.802734 37.355469 L 43.003906 29.376953 L 43.003906 20.921875 L 45.453125 23.361328 C 46.308175 24.213228 47.705517 24.213228 48.560547 23.361328 C 49.415617 22.509328 49.415617 21.113719 48.560547 20.261719 L 33.556641 5.3125 C 33.129131 4.88651 32.566726 4.6738181 32.003906 4.6738281 z M 32.003906 5.6660156 C 32.308856 5.6660156 32.614153 5.7849244 32.851562 6.0214844 L 47.853516 20.970703 C 48.328316 21.443803 48.328316 22.181297 47.853516 22.654297 C 47.378696 23.127397 46.634996 23.127397 46.160156 22.654297 L 32.357422 8.9003906 A 0.50005 0.50005 0 0 0 31.650391 8.9003906 L 17.847656 22.654297 C 17.372816 23.127397 16.627184 23.127397 16.152344 22.654297 C 15.677554 22.181297 15.677554 21.443803 16.152344 20.970703 L 31.15625 6.0214844 C 31.39367 5.7849144 31.698946 5.6660156 32.003906 5.6660156 z M 32.003906 9.9609375 L 42.003906 19.923828 L 42.003906 58 L 38.003906 58 L 38.003906 44 C 38.003906 40.6847 35.319256 38 32.003906 38 C 28.688546 38 26.003906 40.6847 26.003906 44 L 26.003906 58 L 22.003906 58 L 22.003906 19.923828 L 32.003906 9.9609375 z M 30.503906 15 A 0.50005 0.50005 0 0 0 30.003906 15.5 L 30.003906 19 L 26.503906 19 A 0.50005 0.50005 0 0 0 26.003906 19.5 L 26.003906 22.5 A 0.50005 0.50005 0 0 0 26.503906 23 L 30.003906 23 L 30.003906 29.5 A 0.50005 0.50005 0 0 0 30.503906 30 L 33.503906 30 A 0.50005 0.50005 0 0 0 34.003906 29.5 L 34.003906 23 L 37.503906 23 A 0.50005 0.50005 0 0 0 38.003906 22.5 L 38.003906 19.5 A 0.50005 0.50005 0 0 0 37.503906 19 L 34.003906 19 L 34.003906 15.5 A 0.50005 0.50005 0 0 0 33.503906 15 L 30.503906 15 z M 31.003906 16 L 33.003906 16 L 33.003906 19.5 A 0.50005 0.50005 0 0 0 33.503906 20 L 37.003906 20 L 37.003906 22 L 33.503906 22 A 0.50005 0.50005 0 0 0 33.003906 22.5 L 33.003906 29 L 31.003906 29 L 31.003906 22.5 A 0.50005 0.50005 0 0 0 30.503906 22 L 27.003906 22 L 27.003906 20 L 30.503906 20 A 0.50005 0.50005 0 0 0 31.003906 19.5 L 31.003906 16 z M 21.003906 30.494141 L 21.003906 33.169922 L 6.7363281 40.375 C 6.1380681 40.6771 5.42925 40.444956 5.125 39.847656 C 4.82069 39.250356 5.0500975 38.550147 5.6484375 38.248047 L 21.003906 30.494141 z M 43.003906 30.498047 L 58.351562 38.248047 C 58.949932 38.550147 59.17931 39.250356 58.875 39.847656 C 58.57075 40.444556 57.861932 40.6771 57.263672 40.375 L 43.003906 33.173828 L 43.003906 30.498047 z M 21.003906 34.291016 L 21.003906 58 L 8.9960938 58 L 8.9960938 40.353516 L 21.003906 34.291016 z M 43.003906 34.294922 L 55.003906 40.353516 L 55.003906 58 L 43.003906 58 L 43.003906 34.294922 z M 31.490234 39.025391 C 31.494719 39.024941 31.499418 39.025829 31.503906 39.025391 L 31.503906 58 L 27.003906 58 L 27.003906 44 C 27.003906 41.395062 28.956653 39.279616 31.490234 39.025391 z M 32.503906 39.025391 C 35.044022 39.273462 37.003906 41.390452 37.003906 44 L 37.003906 58 L 32.503906 58 L 32.503906 39.025391 z M 14.996094 40.992188 C 12.795144 40.992188 10.996094 42.740403 10.996094 44.908203 L 10.996094 46 L 10.996094 47 L 10.996094 51.5 A 0.50005 0.50005 0 0 0 11.496094 52 L 18.496094 52 A 0.50005 0.50005 0 0 0 18.996094 51.5 L 18.996094 47 L 18.996094 46 L 18.996094 44.908203 C 18.996094 42.740403 17.197054 40.992188 14.996094 40.992188 z M 49.003906 40.992188 C 46.802946 40.992188 45.003906 42.740403 45.003906 44.908203 L 45.003906 46 L 45.003906 47 L 45.003906 51.5 A 0.50005 0.50005 0 0 0 45.503906 52 L 52.503906 52 A 0.50005 0.50005 0 0 0 53.003906 51.5 L 53.003906 44.908203 C 53.003906 42.740403 51.204856 40.992188 49.003906 40.992188 z M 14.496094 42.041016 L 14.496094 46 L 11.996094 46 L 11.996094 44.908203 C 11.996094 43.45565 13.06464 42.270143 14.496094 42.041016 z M 15.496094 42.041016 C 16.927553 42.270143 17.996094 43.45565 17.996094 44.908203 L 17.996094 46 L 15.496094 46 L 15.496094 42.041016 z M 48.503906 42.041016 L 48.503906 46 L 46.003906 46 L 46.003906 44.908203 C 46.003906 43.45565 47.072447 42.270143 48.503906 42.041016 z M 49.503906 42.041016 C 50.93536 42.270143 52.003906 43.45565 52.003906 44.908203 L 52.003906 46 L 49.503906 46 L 49.503906 42.041016 z M 29.496094 46.861328 A 0.50005 0.50005 0 0 0 29.003906 47.369141 L 29.003906 50.632812 A 0.50005 0.50005 0 1 0 30.003906 50.632812 L 30.003906 47.369141 A 0.50005 0.50005 0 0 0 29.496094 46.861328 z M 34.496094 46.861328 A 0.50005 0.50005 0 0 0 34.003906 47.369141 L 34.003906 50.632812 A 0.50005 0.50005 0 1 0 35.003906 50.632812 L 35.003906 47.369141 A 0.50005 0.50005 0 0 0 34.496094 46.861328 z M 11.996094 47 L 14.496094 47 L 14.496094 51 L 11.996094 51 L 11.996094 47 z M 15.496094 47 L 17.996094 47 L 17.996094 51 L 15.496094 51 L 15.496094 47 z M 46.003906 47 L 48.503906 47 L 48.503906 51 L 46.003906 51 L 46.003906 47 z M 49.503906 47 L 52.003906 47 L 52.003906 51 L 49.503906 51 L 49.503906 47 z " transform="translate(-192,988.36217)"></path></g></g></svg>