<svg height='200' width='200'  fill="#550202" xmlns="http://www.w3.org/2000/svg" xmlns:xlink="http://www.w3.org/1999/xlink" version="1.1" x="0px" y="0px" viewBox="0 0 65 65" enable-background="new 0 0 65 65" xml:space="preserve"><g><g><g><g><path d="M39.136,26.144c-2.957,0-3.513-2.985-4.353-5.75c-0.373-1.225-0.958-3.745-2.26-3.715      c-0.252,0.004-0.449-0.149-0.506-0.381c-1.117-4.572,3.911-6.05,4.481-1.884c0.36,2.706,1.729,5.306,3.754,7.134      c0.205,0.185,0.222,0.501,0.036,0.706c-0.185,0.205-0.5,0.223-0.706,0.036c-2.169-1.957-3.704-4.781-4.093-7.877      c-0.105-0.807-0.22-1.425-1.048-1.434c-0.004,0-0.008,0-0.008,0c-1.315,0-1.754,1.362-1.517,2.74      c4.439,0.995,1.603,14.413,10.183,7.469c0.215-0.173,0.529-0.141,0.703,0.074c0.174,0.214,0.141,0.529-0.074,0.703      C42.892,24.643,41.039,26.143,39.136,26.144z"></path></g><g><path d="M51.905,33.777c0.643-2.496,5.477-4.62,5.429-8.15c-0.016-1.106-0.768-2.396-1.956-2.551      c-0.653-0.084-0.524-1.077,0.129-0.991c1.742,0.226,2.806,1.972,2.827,3.529c0.034,2.489-1.795,4.267-3.408,5.834      c-1,0.972-2.896,2.73-1.803,3.653c0.385,0.325,1.08,0.143,1.503-0.212c0.524-0.441,0.921-1.199,1.328-1.772      c2.479-3.495,11.67-6.792,3.373-14.041c-5.06-4.424-9.184-5.787-12.978-4.286c-3.048,1.205-4.588,4.51-5.831,7.242      c-0.258,0.559-1.252,0.326-0.84-0.568c1.204-2.633,2.854-6.239,6.304-7.604c5.49-2.174,10.621,1.507,14.003,4.463      c2.52,2.202,3.739,4.285,3.728,6.366c-0.028,4.544-5.032,6.033-7.296,9.535C54.064,37.864,51.338,35.993,51.905,33.777z"></path></g><g><path d="M33.232,47.074c-2.58-0.252,6.484-9.381,8.533-14.969c1.315-3.586,1.21-7.669,1.117-11.271      c-0.017-0.69,0.985-0.64,1-0.025c0.095,3.691,0.203,7.876-1.178,11.642c-1.891,5.153-6.294,8.942-8.671,13.707      c1.218,0.148,2.319,0.345,3.533,0.473c6.482-5.185,8.868-6.875,9.591-9.682c0.165-0.635,1.133-0.393,0.969,0.25      c-0.818,3.173-3.305,4.908-10.094,10.339C37.74,47.771,33.617,47.111,33.232,47.074z"></path></g><g><path d="M50.178,50.653c-1.811-1.67-1.958-3.76-3.58-11.855c-0.13-0.643,0.85-0.848,0.98-0.196      c1.581,7.892,1.728,9.577,2.974,11.003c1-0.829,2.061-1.658,3.111-2.534c0.305-3.634,0.104-7.442-0.598-11.323      c-0.117-0.651,0.866-0.826,0.984-0.178c0.729,4.042,0.929,8.011,0.592,11.795c-0.012,0.132-0.075,0.253-0.177,0.338      c-1.223,1.028-2.381,1.918-3.627,2.964C50.648,50.828,50.366,50.825,50.178,50.653z"></path></g><g><path d="M53.352,32.752c-0.275-0.029-0.475-0.274-0.445-0.549c0.153-1.463-0.768-3.106-0.257-4.762      c0.635-2.065,3.244-2.983,2.353-6.392c-0.169-0.64,0.801-0.891,0.967-0.253c0.54,2.062-0.104,3.779-1.396,5.388      c-2.121,2.641-0.411,3.629-0.673,6.123C53.873,32.584,53.623,32.782,53.352,32.752z"></path></g><g><path d="M58.145,60.653c-2.816-3.225-4.939-7.053-7.932-10.002c-0.472-0.464,0.233-1.177,0.701-0.712      c3.075,3.029,5.211,6.882,7.984,10.057c0.265,0.303,0.463,0.442,0.55,0.397c0.098-0.148-0.306-2.667-0.34-2.842      c-0.705-3.638-2.489-7.091-5.022-9.723c-0.46-0.477,0.265-1.168,0.721-0.693c3.693,3.837,4.895,7.767,5.596,12.396      C60.732,61.622,59.252,61.924,58.145,60.653z"></path></g><g><path d="M56.908,64.369c-0.893-1.248,2.718-5.614,4.453-3.186C63.113,63.637,57.788,65.599,56.908,64.369z M60.2,62.899      c0.767-0.548,0.591-0.794,0.348-1.135c-0.283-0.395-0.485-0.54-1.186-0.037c-0.943,0.674-1.629,1.735-1.629,2.057      C58.736,63.713,59.491,63.407,60.2,62.899z"></path></g><g><path d="M37.838,64.014c-3.286,0,1.419-6.473,3.464-3.607C42.855,62.578,39.043,64.014,37.838,64.014z M37.838,63.014      c0.756,0,2.773-0.903,2.854-1.53c0.031-0.242-0.373-0.855-0.674-0.855c-0.691,0-2.346,1.734-2.344,2.379      C37.675,63.007,37.807,63.014,37.838,63.014z"></path></g><g><path d="M39.584,59.927c0.203-2.48,0.332-11.372-2.028-12.143c-0.629-0.205-0.317-1.158,0.311-0.95      c1.662,0.542,2.038,2.525,2.198,3.372c0.611,3.23,0.784,6.528,0.516,9.803C40.526,60.665,39.53,60.586,39.584,59.927z"></path></g><g><path d="M38.763,60.641c-2.739-4.278-4.758-8.944-6.001-13.868c-0.163-0.641,0.807-0.886,0.969-0.245      c1.218,4.82,3.193,9.387,5.874,13.574C39.962,60.657,39.12,61.196,38.763,60.641z"></path></g></g><g><path d="M49.784,13.313c-6.332,0-5.904-9.324-2.881-11.649c2.847-2.189,7.929-0.205,8.21,5.093     C55.291,10.098,53.179,13.313,49.784,13.313z M49.591,1.791c-4.208,0-4.134,6.028-3.397,8.142     c0.574,1.645,2.218,2.381,3.591,2.381C55.654,12.313,55.476,1.791,49.591,1.791z"></path></g><g><path d="M53.94,8.937c-0.288-1.316-0.662-3.019-1.965-3.737c-0.582-0.321-1.295-0.333-1.773-0.032     c-0.196,0.123-0.509,0.422-0.751,0.592c-0.841,0.591-1.477,0.396-2.12-0.207c-0.138-0.128-0.28-0.261-0.375-0.268     c-0.484-0.046-0.845,1.821-0.872,2.334c-0.035,0.696-1.032,0.585-0.998-0.051c0.112-2.235,1.28-4.281,2.927-2.746     c0.689,0.642,0.854,0.005,1.658-0.501c1.097-0.687,4.058-1.016,5.23,4.33c0.059,0.27-0.104,0.572-0.373,0.631     C54.237,9.345,53.995,9.189,53.94,8.937z"></path></g><g><path d="M48.34,17.486c0.101-1.091-0.293-2.132-0.711-3.292c-0.21-0.587,0.663-1.115,1.008-0.151     c0.278,0.772,0.563,1.563,0.672,2.398l2.752-2.457c0.497-0.441,1.155,0.309,0.666,0.746l-3.556,3.175     C48.832,18.207,48.299,17.936,48.34,17.486z"></path></g><g><path d="M56.745,23.299l3.18-3.609c0.436-0.495,1.187,0.164,0.75,0.661l-3.18,3.609C57.061,24.455,56.308,23.795,56.745,23.299z"></path></g><g><path d="M42.717,24.054l-2.301-3.239c-0.384-0.539,0.435-1.118,0.814-0.579l2.301,3.239     C43.915,24.015,43.095,24.591,42.717,24.054z"></path></g><g><path d="M41.958,33.466c-0.232-0.149-0.301-0.458-0.151-0.69c0.15-0.232,0.461-0.3,0.69-0.151     c2.782,1.781,6.33,2.279,9.495,1.333c0.641-0.186,0.916,0.77,0.287,0.958C48.847,35.941,44.989,35.407,41.958,33.466z"></path></g><g><g><path d="M14.76,19.73c-3.353-2.24,1.301-8.05-1.612-10.999c-1.936-1.958-5.412-0.16-4.75,2.632      c0.396,1.67,2.227,2.842,2.76,4.753c0.827,2.96-2.167,4.517-4.212,2.76C3.601,16.008,4.304,4.331,9.182,4.331      c0.687,0.016,1.104,0.313,1.438,0.553c0.492,0.352,0.544,0.296,0.771,0.237c3.904-1.024,4.467,2.235,6.938,8.067      c0.516,1.215,1.156,2.727,0.847,4.275C18.705,19.837,16.325,20.775,14.76,19.73z M13.859,8.028      c3.327,3.367-1.089,9.169,1.456,10.871c0.964,0.641,2.547,0.045,2.881-1.63c0.23-1.153-0.22-2.353-0.786-3.689      c-2.33-5.483-2.633-6.566-3.661-7.343c-1.369-1.031-2.048,0.649-3.71-0.538c-0.27-0.192-0.502-0.359-0.811-0.366      c0,0,0,0-0.001,0c-3.783,0-4.379,10.427-1.631,12.787c1.337,1.147,3.146,0.232,2.599-1.733c-0.464-1.661-2.307-2.841-2.77-4.791      C6.539,7.856,11.19,5.327,13.859,8.028z"></path></g><g><path d="M5.61,35.274c3.508-0.153,8.334-1.152,9.809-2.269c1.387-1.049,1.059-2.076,0.444-3.411      c-1.851-4.103-0.624-8.559,2.182-11.081c4.783-4.299,7.811-10.333,10.986-15.902c0.162-0.284,0.511-0.974,0.252-1.251      c-1.293-1.398-9.762,15.896-11.348,13.229c-0.142-0.237-0.063-0.544,0.174-0.686c1.707-1.016,4.303-5.134,6.389-8.442      c1.821-2.889,2.886-4.544,3.581-4.957c1.272-0.758,3.175,0.228,1.821,2.603c-3.217,5.639-6.272,11.733-11.188,16.151      c-2.476,2.226-3.625,6.202-1.941,9.919c0.519,1.126,1.386,3.01-0.749,4.626c-1.981,1.499-7.529,2.346-10.369,2.47      C4.994,36.302,4.948,35.303,5.61,35.274z"></path></g><g><path d="M9.422,28.83c-4.561-4.047-2.722-10.678-1.55-10.173c0.253,0.109,0.37,0.403,0.261,0.657      c-1.313,3.044-0.527,6.568,1.953,8.769C10.579,28.52,9.918,29.268,9.422,28.83z"></path></g><g><path d="M12.548,48.135c-4.2-2.918-11.676-10.125-11.242-13.153c0.55-3.873,14.132-9.411,14.466-7.85      c0.058,0.27-0.115,0.536-0.385,0.593c-4.247,0.907-8.286,2.82-11.68,5.531c-1.774,1.417-1.815,2.285-0.564,4.087      c2.504,3.599,5.553,6.732,9.073,9.325c-0.63-4.36-3.084-8.134-6.848-10.47C4.806,35.85,5.333,35,5.895,35.349      c4.35,2.701,7.061,7.198,7.437,12.339C13.362,48.112,12.887,48.373,12.548,48.135z"></path></g><g><path d="M3.029,25.62c-0.951-3.826-0.481-6.681,0.171-9.642c0.231-1.06,0.54-2.057,1.75-2.625      c0.588-0.28,1.029,0.622,0.424,0.905c-0.738,0.347-0.966,0.876-1.197,1.934C3.703,18.352,2.993,21.329,4,25.378      c0.104,0.419,0.63,0.55,0.926,0.245l1.67-1.715c0.461-0.474,1.178,0.223,0.717,0.697l-1.67,1.715      C4.797,27.19,3.322,26.797,3.029,25.62z"></path></g><g><path d="M5.798,21.805c-1.505-0.551-1.257-6.59,0.154-5.984c0.254,0.108,0.371,0.402,0.263,0.656      c-0.65,1.516-0.551,3.309-0.087,4.321c0.122-0.158,0.171-0.355,0.271-0.551c0.44-0.877,1.386-0.868,1.444-0.236      c0.024,0.275-0.179,0.518-0.454,0.542c-0.001,0.004-0.051,0.051-0.097,0.144c-0.128,0.256-0.147,0.418-0.33,0.679      C6.674,21.786,6.192,21.95,5.798,21.805z"></path></g><g><path d="M15.2,60.777c-2.647-4.563-4.146-9.249-4.454-13.927c-0.042-0.656,0.955-0.733,0.998-0.065      c0.274,4.182,1.538,8.376,3.759,12.486c1.43-5.073,0.825-10.682-1.709-15.564c-0.059-0.111-0.072-0.241-0.039-0.362      c0.89-3.272,1.487-6.647,1.777-10.03c0.058-0.658,1.052-0.573,0.996,0.085c-0.289,3.378-0.881,6.748-1.758,10.02      C19.386,52.497,16.373,62.804,15.2,60.777z"></path></g><g><path d="M9.92,40.634c0.191-1.773,0.098-3.558-0.279-5.304c-0.139-0.651,0.84-0.848,0.979-0.211      c0.351,1.629,0.47,3.29,0.354,4.946c0.102,0.22-0.006,0.484-0.071,0.743C10.75,41.416,9.853,41.246,9.92,40.634z"></path></g><g><path d="M13.776,50.939c-0.919,0-0.449-1.641-0.339-4.579h-0.636c-0.659,0-0.662-1,0-1c0.7,0,1.679-0.172,1.654,0.518      C14.31,49.989,14.54,50.939,13.776,50.939z"></path></g><g><path d="M13.105,50.916l-0.811-3.077c-0.169-0.644,0.802-0.888,0.967-0.255l0.811,3.077      C14.241,51.304,13.271,51.551,13.105,50.916z"></path></g><g><path d="M13.048,64.255c-0.152,0-0.3-0.07-0.396-0.194c-0.122-0.158-0.139-0.372-0.043-0.546c0.548-1,2.933-4.52,3.438-3.23      l0.694,1.759c0.085,0.215,0.012,0.459-0.177,0.592C15.08,63.682,13.405,64.255,13.048,64.255z M15.411,61.397      c-0.409,0.457-0.803,0.921-1.163,1.412c0.479-0.212,0.957-0.472,1.416-0.771L15.411,61.397z"></path></g><g><path d="M11.432,19.532c-0.286,0-0.515-0.24-0.499-0.527c0.042-0.76-0.88-1.036-0.448-1.563c0.423-0.517,1.051,0.127,1.3,0.75      c0.594-0.378,1.286-0.78,1.844-1.18c0.528-0.387,1.123,0.424,0.582,0.813C14.035,17.951,11.65,19.532,11.432,19.532z"></path></g><g><path d="M10.066,15.22c0.088-0.261,0.374-0.399,0.635-0.311c0.651,0.224,1.397,0.15,1.993-0.198      c0.596-0.348,1.026-0.959,1.153-1.637c0.119-0.638,1.105-0.473,0.982,0.184c-0.179,0.959-0.788,1.825-1.632,2.317      C12.228,16.14,9.705,16.269,10.066,15.22z"></path></g></g></g><g><path d="M42.323,19.157c0.001-0.001,0.016-0.032,0.017-0.033c0.15-0.295,0.625-0.132,0.433,0.252    C42.629,19.673,42.178,19.455,42.323,19.157z"></path></g><g><path d="M43.518,17.82c0.155-0.312,0.67-0.031,0.509,0.266C43.866,18.379,43.371,18.115,43.518,17.82z"></path></g><g><path d="M44.29,16.736c-0.058-0.288,0.244-0.305,0.526-0.362c0.324-0.063,0.423,0.424,0.1,0.49l-0.331,0.067    C44.453,16.959,44.318,16.874,44.29,16.736z"></path></g><g><path d="M45.777,15.585c0.048-0.353,0.75-0.234,0.702,0.1C46.423,16.065,45.733,15.912,45.777,15.585z"></path></g><g><path d="M47.489,15.487c0.32-0.126,0.586,0.494,0.255,0.629C47.407,16.253,47.17,15.616,47.489,15.487z"></path></g><g><path d="M46.985,17.651c-0.14-0.069-0.187-0.185-0.088-0.383c0.151-0.315,0.635-0.05,0.431,0.257    C47.266,17.645,47.109,17.713,46.985,17.651z"></path></g><g><path d="M45.079,18.404c0-0.138,0.112-0.267,0.25-0.267c0.141,0,0.25,0.084,0.25,0.267C45.579,18.733,45.079,18.735,45.079,18.404    z"></path></g><g><path d="M44.373,20.089l0.4-0.301l-0.207,0.14l0.221-0.12C45.039,20.187,44.638,20.484,44.373,20.089z"></path></g><g><path d="M46.008,19.843c-0.407-0.216-0.103-0.628,0.175-0.473l-0.12,0.219l0.148-0.204C46.11,19.675,46.155,19.574,46.008,19.843z    "></path></g><g><path d="M47.141,18.658c0.243-0.243,0.707,0.207,0.449,0.456C47.343,19.358,46.898,18.901,47.141,18.658z"></path></g><g><path d="M48.925,18.828c-0.008-0.27,0.227-0.257,0.476-0.265c0.147,0,0.252,0.113,0.256,0.244    c0.006,0.269-0.226,0.256-0.474,0.263C49.03,19.07,48.929,18.957,48.925,18.828z"></path></g><g><path d="M50.699,17.991c-0.329,0-0.331-0.5,0-0.5C51.18,17.491,51.18,17.991,50.699,17.991z"></path></g><g><path d="M51.741,16.548c0-0.337,0.6-0.346,0.6,0C52.341,16.894,51.741,16.885,51.741,16.548z"></path></g><g><path d="M53.037,15.546c0.251-0.244,0.724,0.253,0.48,0.492C53.255,16.292,52.791,15.787,53.037,15.546z"></path></g><g><path d="M54.66,16.376c0.135-0.139,0.28-0.074,0.419,0.059c0.1,0.095,0.104,0.254,0.008,0.354    C54.846,17.042,54.417,16.624,54.66,16.376z"></path></g><g><path d="M56.467,17.858c-0.071,0-0.285-0.09-0.354-0.116c-0.312-0.117-0.127-0.584,0.176-0.468l0.266,0.099    c0.129,0.048,0.194,0.192,0.146,0.322C56.663,17.796,56.568,17.858,56.467,17.858z"></path></g><g><path d="M57.367,18.785l-0.167-0.1c-0.119-0.071-0.157-0.224-0.087-0.343c0.07-0.12,0.225-0.158,0.343-0.087    c0.199,0.119,0.384,0.218,0.254,0.44C57.639,18.816,57.486,18.854,57.367,18.785z"></path></g><g><path d="M53.233,17.21v-0.166c0-0.33,0.5-0.331,0.5,0v0.166C53.733,17.54,53.233,17.541,53.233,17.21z"></path></g><g><path d="M52.239,18.371c0-0.429,0.5-0.431,0.5,0C52.739,18.7,52.239,18.701,52.239,18.371z"></path></g><g><path d="M49.778,20.407c-0.01,0-0.019,0-0.028-0.001c-0.138-0.012-0.239-0.133-0.228-0.27c0.008-0.089,0.062-0.164,0.136-0.202    c0.043-0.072,0.12-0.121,0.21-0.123c0.144,0.025,0.252,0.107,0.255,0.245c0.002,0.096-0.038,0.189-0.11,0.256    C49.948,20.373,49.864,20.407,49.778,20.407z"></path></g><g><path d="M47.101,20.691c0-0.429,0.5-0.431,0.5,0C47.601,21.02,47.101,21.022,47.101,20.691z"></path></g><g><path d="M44.847,21.486c0-0.314,0.5-0.425,0.5,0.133C45.347,21.933,44.847,22.044,44.847,21.486z"></path></g><g><path d="M53.997,18.31c0.035-0.258,0.251-0.216,0.482-0.182c0.137,0.021,0.231,0.147,0.211,0.284    C54.639,18.773,53.946,18.65,53.997,18.31z"></path></g><g><path d="M55.857,19.469c-0.344-0.354,0.078-0.643,0.296-0.413l-0.181,0.173l0.211-0.141    C56.008,19.339,56.079,19.257,55.857,19.469z"></path></g><g><path d="M56.895,20.403c0.133-0.316,0.766-0.066,0.623,0.267C57.378,21.002,56.759,20.719,56.895,20.403z"></path></g><g><path d="M58.621,19.946c-0.036,0-0.073-0.008-0.107-0.024l-0.07-0.035c-0.124-0.062-0.174-0.212-0.112-0.335    c0.066-0.131,0.196-0.18,0.397-0.081c0.125,0.06,0.178,0.209,0.118,0.333C58.803,19.894,58.714,19.946,58.621,19.946z"></path></g><g><path d="M51.184,19.594c-0.341-0.016-0.297-0.535,0.021-0.5c0.217,0.011,0.417,0.022,0.404,0.271    C51.595,19.62,51.394,19.604,51.184,19.594z"></path></g><g><path d="M53.093,19.684c0.156-0.308,0.738-0.027,0.58,0.29C53.514,20.291,52.939,19.993,53.093,19.684z"></path></g><g><path d="M53.779,20.776c0.02-0.318,0.524-0.366,0.494,0.129C54.255,21.219,53.749,21.282,53.779,20.776z"></path></g><g><path d="M51.776,21.165c0.211-0.105,0.339-0.055,0.405,0.077c0.065,0.131,0.029,0.263-0.173,0.367    C51.712,21.761,51.487,21.317,51.776,21.165z"></path></g><g><path d="M49.852,21.42c0-0.35,0.5-0.342,0.5-0.033v0.033C50.352,21.749,49.852,21.751,49.852,21.42z"></path></g><g><path d="M47.508,22.155c-0.19-0.284,0.409-0.721,0.615-0.409c0.152,0.226-0.06,0.34-0.27,0.479    C47.743,22.3,47.585,22.272,47.508,22.155z"></path></g><g><path d="M45.248,23.151c-0.245-0.256,0.116-0.598,0.328-0.379l-0.181,0.173l0.191-0.162C45.393,23.021,45.47,22.938,45.248,23.151    z"></path></g><g><path d="M44.451,24.57c0.054-0.342,0.75-0.253,0.693,0.107C45.087,25.04,44.397,24.911,44.451,24.57z"></path></g><g><path d="M46.456,24.421c-0.329,0-0.331-0.5,0-0.5C46.937,23.921,46.937,24.421,46.456,24.421z"></path></g><g><path d="M48.421,23.422c-0.158-0.317,0.426-0.598,0.579-0.29C49.154,23.442,48.579,23.737,48.421,23.422z"></path></g><g><path d="M50.334,23.128c-0.329,0-0.331-0.5,0-0.5c0.203,0,0.383,0.022,0.383,0.25C50.717,23.107,50.536,23.128,50.334,23.128z"></path></g><g><path d="M52.206,22.878c0-0.228,0.18-0.25,0.382-0.25c0.138,0,0.25,0.112,0.25,0.25C52.838,23.218,52.206,23.231,52.206,22.878z"></path></g><g><path d="M53.747,22.385c0.301-0.149,0.604,0.426,0.282,0.583C53.709,23.123,53.435,22.535,53.747,22.385z"></path></g><g><path d="M44.407,26.052c0.148-0.303,0.675-0.053,0.514,0.257C44.764,26.607,44.266,26.347,44.407,26.052z"></path></g><g><path d="M46.751,25.481c0.135-0.035,0.271,0.041,0.309,0.173c0.037,0.133-0.041,0.271-0.174,0.308l-0.105,0.029    C46.495,26.062,46.24,25.619,46.751,25.481z"></path></g><g><path d="M48.617,25.499l-0.105-0.231l-0.017-0.254C48.94,24.905,49.064,25.388,48.617,25.499z"></path></g><g><path d="M51.03,25.15c-0.329,0-0.331-0.5,0-0.5c0.186,0,0.35,0.04,0.35,0.25C51.38,25.11,51.216,25.15,51.03,25.15z"></path></g><g><path d="M52.802,24.169c0.252,0.153,0.106,0.512-0.133,0.484c-0.011,0-0.023-0.002-0.032,0    C52.189,24.698,52.374,23.913,52.802,24.169z"></path></g><g><path d="M44.799,28.299c-0.014,0-0.027-0.001-0.042-0.003l-0.199-0.033c-0.325-0.055-0.243-0.552,0.084-0.493l0.199,0.033    C45.141,27.854,45.101,28.299,44.799,28.299z"></path></g><g><path d="M46.447,27.817c-0.036-0.133,0.042-0.271,0.175-0.307c0.289-0.079,0.593-0.215,0.672,0.076    c0.036,0.133-0.042,0.271-0.175,0.307l-0.364,0.1C46.615,28.029,46.482,27.946,46.447,27.817z"></path></g><g><path d="M48.71,26.883c-0.13-0.329,0.502-0.564,0.63-0.252c0.051,0.128-0.011,0.274-0.14,0.325l-0.165,0.066    C48.907,27.073,48.762,27.011,48.71,26.883z"></path></g><g><path d="M50.549,26.359c0-0.347,0.698-0.364,0.698,0C51.247,26.706,50.549,26.723,50.549,26.359z"></path></g><g><path d="M52.123,25.773c0.118-0.337,0.649-0.102,0.545,0.193C52.541,26.32,52.019,26.068,52.123,25.773z"></path></g><g><path d="M44.481,29.734c-0.182-0.095-0.349-0.19-0.237-0.406c0.161-0.304,0.739-0.015,0.575,0.3    C44.755,29.75,44.606,29.798,44.481,29.734z"></path></g><g><path d="M43.61,31.511c-0.074,0-0.148-0.033-0.198-0.097l-0.087-0.115c-0.082-0.111-0.059-0.268,0.053-0.35    c0.279-0.204,0.651,0.303,0.386,0.51C43.717,31.494,43.664,31.511,43.61,31.511z"></path></g><g><path d="M43.738,32.608h-0.1c-0.138,0-0.25-0.112-0.25-0.25s0.112-0.25,0.25-0.25h0.1c0.138,0,0.25,0.112,0.25,0.25    S43.876,32.608,43.738,32.608z"></path></g><g><path d="M45.466,31.887c-0.26,0-0.347-0.351-0.116-0.472c0.178-0.094,0.349-0.181,0.467,0.033c0.065,0.121,0.021,0.273-0.1,0.339    l-0.135,0.072C45.545,31.877,45.505,31.887,45.466,31.887z"></path></g><g><path d="M45.976,29.477c0.034-0.277,0.282-0.217,0.544-0.185c0.138,0.018,0.234,0.143,0.217,0.28    C46.688,29.947,45.935,29.817,45.976,29.477z"></path></g><g><path d="M48.23,28.584c0.039-0.344,0.837-0.292,0.794,0.089C48.983,29.055,48.191,28.929,48.23,28.584z"></path></g><g><path d="M49.821,28.417c0.044-0.346,0.806-0.279,0.761,0.093C50.535,28.887,49.78,28.758,49.821,28.417z"></path></g><g><path d="M51.347,28.066c0.091-0.345,0.658-0.158,0.571,0.152C51.825,28.565,51.267,28.382,51.347,28.066z"></path></g><g><path d="M47.782,31.548c-0.009,0-0.019,0-0.028-0.001l-0.297-0.033c-0.138-0.015-0.237-0.138-0.223-0.275    c0.04-0.355,0.836-0.268,0.796,0.088C48.016,31.454,47.908,31.548,47.782,31.548z"></path></g><g><path d="M48.73,30.221c0.069-0.331,0.73-0.214,0.653,0.139C49.311,30.711,48.657,30.556,48.73,30.221z"></path></g><g><path d="M50.806,30.225c0.15-0.298,0.666-0.048,0.514,0.257C51.166,30.787,50.658,30.523,50.806,30.225z"></path></g><g><path d="M45.417,30.692l-0.133-0.066c-0.301-0.15-0.064-0.598,0.223-0.447c0.183,0.091,0.354,0.183,0.245,0.401    C45.688,30.707,45.535,30.753,45.417,30.692z"></path></g><g><path d="M45.296,33.404c-0.329,0-0.331-0.5,0-0.5c0.248,0,0.482-0.02,0.482,0.25S45.544,33.404,45.296,33.404z"></path></g><g><path d="M47.086,33.47c-0.329,0-0.331-0.5,0-0.5c0.221,0,0.316,0.103,0.316,0.25S47.307,33.47,47.086,33.47z"></path></g><g><path d="M48.975,32.642c-0.138,0-0.25-0.112-0.25-0.25s0.112-0.25,0.25-0.25h0.198c0.138,0,0.25,0.112,0.25,0.25    C49.424,32.652,49.209,32.642,48.975,32.642z"></path></g><g><path d="M49.676,33.378c0.301-0.079,0.545,0.378-0.013,0.519C49.379,33.968,49.109,33.519,49.676,33.378z"></path></g><g><path d="M50.842,33.404c0.225-0.192,0.683,0.077,0.198,0.487C50.816,34.083,50.357,33.814,50.842,33.404z"></path></g><g><path d="M51.593,31.813c-0.329,0-0.331-0.5,0-0.5C52.022,31.313,52.024,31.813,51.593,31.813z"></path></g><g><path d="M10.99,36.181c-0.329,0-0.331-0.5,0-0.5C11.485,35.681,11.487,36.181,10.99,36.181z"></path></g><g><path d="M12.349,36.063c0.09-0.293,0.049-0.192,0.186-0.466l-0.111,0.224l0.148-0.206C12.968,35.815,12.754,36.263,12.349,36.063z    "></path></g><g><path d="M13.748,35.629c-0.312,0-0.411-0.5,0.11-0.5C14.15,35.129,14.298,35.629,13.748,35.629z"></path></g><g><path d="M11.265,37.063c-0.329,0-0.331-0.5,0-0.5C11.763,36.563,11.763,37.063,11.265,37.063z"></path></g><g><path d="M14.601,34.812c0.307-0.137,0.574,0.428,0.251,0.57C14.537,35.526,14.289,34.949,14.601,34.812z"></path></g></g></svg>