<svg height='200' width='200'  fill="#550202" xmlns="http://www.w3.org/2000/svg" xmlns:xlink="http://www.w3.org/1999/xlink" version="1.1" x="0px" y="0px" viewBox="0 0 100 100" enable-background="new 0 0 100 100" xml:space="preserve"><path d="M80.7,26.7H65.9l-1.7-5.6c-0.5-1.7-2.1-2.9-3.9-2.9H41.8c-1.8,0-3.4,1.2-3.9,2.9l-1.7,5.6h-3.4v-1.6c0-1.6-1.3-2.8-2.8-2.8  h-6.7c-1.6,0-2.8,1.3-2.8,2.8v1.6h-1.3c-5.9,0-10.8,4.8-10.8,10.8V71c0,5.9,4.8,10.8,10.8,10.8h61.5c5.9,0,10.8-4.8,10.8-10.8V37.5  C91.5,31.6,86.7,26.7,80.7,26.7z M40.3,21.8c0.2-0.6,0.8-1.1,1.5-1.1h18.6c0.7,0,1.3,0.4,1.5,1.1l1.5,4.9H38.9L40.3,21.8z M23,25.1  c0-0.2,0.1-0.3,0.3-0.3H30c0.2,0,0.3,0.1,0.3,0.3v1.6H23V25.1z M11,37.5c0-4.6,3.7-8.3,8.3-8.3h47.5v13.2h-2.9  c-0.8-1.1-1.7-2.2-2.7-3.2c-4.1-4.1-9.6-6.4-15.4-6.4c-5.8,0-11.3,2.3-15.4,6.4c-1,1-1.9,2.1-2.7,3.2H11V37.5z M65.1,54.6  c0,5.2-2,10-5.7,13.7c-3.6,3.6-8.5,5.7-13.7,5.7s-10-2-13.7-5.7c-3.6-3.6-5.7-8.5-5.7-13.7c0-5.2,2-10,5.7-13.7  c3.6-3.6,8.5-5.7,13.7-5.7s10,2,13.7,5.7C63.1,44.6,65.1,49.5,65.1,54.6z M89,71c0,4.6-3.7,8.3-8.3,8.3H19.3c-4.6,0-8.3-3.7-8.3-8.3  V44.9h15.3c-1.5,3-2.3,6.3-2.3,9.7c0,5.8,2.3,11.3,6.4,15.4c4.1,4.1,9.6,6.4,15.4,6.4c5.8,0,11.3-2.3,15.4-6.4  c4.1-4.1,6.4-9.6,6.4-15.4c0-3.4-0.8-6.7-2.3-9.7H89V71z M89,42.4H69.3V29.2h11.4c4.6,0,8.3,3.7,8.3,8.3V42.4z M45.8,37.4  C45.8,37.4,45.8,37.4,45.8,37.4c-4.6,0-8.9,1.8-12.2,5c-3.3,3.3-5,7.6-5,12.2c0,9.5,7.7,17.2,17.2,17.2S63,64.1,63,54.6  C63,45.1,55.3,37.4,45.8,37.4z M45.8,69.3c-8.1,0-14.7-6.6-14.7-14.7c0-3.9,1.5-7.6,4.3-10.4c2.8-2.8,6.5-4.3,10.4-4.3  c8.1,0,14.7,6.6,14.7,14.7C60.5,62.7,53.9,69.3,45.8,69.3z M45.8,42.8c-0.7,0-1.3,0.6-1.3,1.3c0,0.7,0.6,1.3,1.3,1.3  c5.1,0,9.3,4.2,9.3,9.3c0,0.7,0.6,1.3,1.3,1.3c0.7,0,1.3-0.6,1.3-1.3C57.6,48.1,52.3,42.8,45.8,42.8z M80.3,31.5h-4.2  c-2.3,0-4.2,1.9-4.2,4.2v0.1c0,2.3,1.9,4.2,4.2,4.2h4.2c2.3,0,4.2-1.9,4.2-4.2v-0.1C84.5,33.4,82.6,31.5,80.3,31.5z M82,35.8  c0,0.9-0.7,1.7-1.7,1.7h-4.2c-0.9,0-1.7-0.7-1.7-1.7v-0.1c0-0.9,0.7-1.7,1.7-1.7h4.2C81.2,34,82,34.8,82,35.8L82,35.8z"></path></svg>