<svg height='200' width='200'  fill="#550202" xmlns="http://www.w3.org/2000/svg" xmlns:xlink="http://www.w3.org/1999/xlink" version="1.1" x="0px" y="0px" viewBox="0 0 100 100" enable-background="new 0 0 100 100" xml:space="preserve"><path d="M95.867,33.61c-0.863-7.48-4.786-14.461-10.763-19.154C79.264,9.87,71.917,7.862,64.392,8.807  c-5.425,0.79-10.054,2.777-13.781,5.911c-1.394-1.064-3.751-2.79-5.105-3.542C33.369,4.437,18.41,7.174,9.942,17.683  c-5.739,7.062-7.375,15.681-4.864,25.615c1.502,5.961,5.037,11.893,9.744,16.383c-0.055,2.63,1.021,5.153,3.02,7.019  c1.547,1.444,3.472,2.295,5.388,2.427c0.195,2.096,1.161,4.18,2.621,5.521c1.445,1.428,3.409,2.262,5.471,2.368  c0.21,2.12,1.254,4.383,2.767,5.772c1.448,1.328,3.902,2.688,6.318,2.973c0.638,2.508,1.924,5.177,5.249,6.288  c0.491,0.165,1.531,0.451,2.83,0.451c1.598,0,3.588-0.434,5.425-2.064c0.168-0.17,0.473-0.454,0.87-0.826  c3.617-3.388,6.345-6.207,7.554-8.453c2.25,0.794,5.189,0.741,7.055-0.705c2.331-1.668,3.147-4.148,3.003-6.476  c2.243,0.132,4.692-0.77,6.1-2.156c1.485-1.464,2.397-3.917,2.12-6.188c1.993,0.016,4.571-0.471,6.604-2.619  c2.012-2.123,1.974-4.953,1.521-6.659C94.234,49.858,96.828,41.617,95.867,33.61z M19.889,64.506  c-1.369-1.277-2.097-2.994-2.059-4.774l9.666-9.358c0.961-0.699,3.939-1.933,6.175,0.75c2.024,2.432,0.943,4.603,0.638,5.111  l-10.242,9.89C22.644,66.232,21.112,65.648,19.889,64.506z M26.203,68.234l10.183-9.833c0.625-0.343,3.632-1.832,5.488,0.001  c1.898,1.878,1.483,4.429,1.266,5.308L32.23,74c-1.589,0.12-3.199-0.429-4.31-1.525C26.846,71.487,26.169,69.771,26.203,68.234z   M34.29,76.18l10.905-10.286c0.967-0.185,3.85-0.544,5.447,1.346c1.104,1.309,1.001,3.545,0.815,4.655L40.99,82.796  c-1.545-0.115-3.544-1.001-4.873-2.219C35.046,79.594,34.269,77.658,34.29,76.18z M52.729,87.419  c-0.435,0.407-0.769,0.721-0.88,0.838c-2.054,1.821-4.53,1.187-5.242,0.946c-1.491-0.498-2.642-1.472-3.352-4.435l10.508-10.943  c1.609-0.976,3.932,0.32,4.747,1.319c1.098,1.343,1.413,3.32,1.484,3.887C59.79,79.968,58.319,82.183,52.729,87.419z M85.037,60.949  c-1.846,1.95-4.529,1.785-5.897,1.537L61.186,44.374c-0.583-0.589-1.534-0.593-2.121-0.01c-0.589,0.583-0.593,1.533-0.01,2.121  l18.149,18.31c0.828,1.256,0.438,3.648-0.819,4.887c-1.145,1.127-3.857,1.776-5.176,0.915c-0.016-0.011-0.034-0.013-0.051-0.022  L52.784,51.743c-0.579-0.593-1.529-0.605-2.121-0.025c-0.593,0.578-0.605,1.528-0.026,2.121L69.119,72.78  c0.569,1.735,0.338,3.932-1.523,5.265c-1.021,0.79-3.245,0.798-4.701,0.104c-0.195-1.143-0.719-3.261-2.061-4.903  c-1.271-1.553-3.795-2.961-6.264-2.755c0.007-1.577-0.305-3.609-1.637-5.188c-1.929-2.281-4.699-2.631-6.628-2.553  c0.123-1.806-0.189-4.371-2.322-6.48c-1.937-1.915-4.293-1.981-6.146-1.583c0.123-1.638-0.282-3.588-1.859-5.482  c-3.387-4.064-8.159-2.869-10.372-1.162c-0.044,0.034-0.087,0.07-0.127,0.11l-9.108,8.818c-4.039-4.036-7.072-9.207-8.383-14.407  C5.688,33.47,7.089,25.95,12.274,19.57c7.554-9.373,20.918-11.801,31.774-5.772c1.103,0.613,3.046,2.026,4.344,3.002l-15.45,15.121  c-0.429,0.372-2.549,2.35-2.568,5.096c-0.013,1.725,0.791,3.298,2.389,4.676c4.822,4.155,12.104,3.647,17.313-1.212  c2.253-2.099,7.688-7.424,10.009-9.705l25.681,26.108C85.984,57.517,86.38,59.531,85.037,60.949z M86.947,53.807L61.171,27.602  c-0.279-0.284-0.659-0.445-1.058-0.448h-0.012c-0.394,0-0.771,0.155-1.053,0.431c-0.081,0.081-8.207,8.08-11.02,10.7  c-4.071,3.796-9.667,4.273-13.308,1.135c-0.909-0.783-1.35-1.558-1.348-2.37c0.002-1.274,1.12-2.508,1.545-2.872  c0.03-0.025,0.059-0.051,0.086-0.078l16.703-16.348c3.425-3.196,7.837-5.207,13.086-5.972c6.698-0.842,13.253,0.949,18.458,5.036  c5.352,4.201,8.863,10.448,9.636,17.145C93.721,40.899,91.563,48.048,86.947,53.807z"></path></svg>