<svg height='200' width='200'  fill="#550202" xmlns="http://www.w3.org/2000/svg" xmlns:xlink="http://www.w3.org/1999/xlink" version="1.1" x="0px" y="0px" viewBox="0 0 100 100" style="enable-background:new 0 0 100 100;" xml:space="preserve"><title>wedding</title><path d="M84,91.9l2-0.3l-0.2-1c-0.5-2.6-7.1-1.9-9.9-1.5L71,61.4c4.7-1.3,7.9-5.5,8-10.4c0-0.7,0-1.5-0.2-2.2l-4.1-19.7  c0-0.1,0-0.1-0.1-0.2L72,16.1c0-0.1,0-0.3,0-0.4c-0.6-3.2-9.3-1.8-10.3-1.6c-2.2,0.4-4.3,1-6.4,1.9c-2.1,1-3,2-2.8,3.2  c0,0.2,0.1,0.3,0.2,0.5l4.8,33.2c0.9,5.2,5.4,9,10.7,9c0.3,0,0.6,0,0.9,0l4.9,27.5c-2.8,0.6-9.2,2.2-8.8,4.8l0.2,1l2-0.3l0,0  L84,91.9L84,91.9z M79,90.7L71.6,92C74,91.3,76.5,90.9,79,90.7z M73,30.9l3.9,18.5c0.7,4.8-2.6,9.4-7.5,10.1  c-4.7,0.7-9.1-2.4-10-7.1l-2.7-18.6L73,30.9z M56.4,31.7L54.8,21c0.5,0.1,0.9,0.2,1.4,0.2c0.5,0,1,0.1,1.5,0.1  c1.7,0,3.4-0.2,5.1-0.5c2.2-0.4,4.3-1,6.3-1.9c0.4-0.2,0.8-0.4,1.2-0.7l2.2,10.4L56.4,31.7z M62,16.1c4.2-0.7,7.1-0.4,7.9,0  c-0.6,0.7-3.2,2-7.5,2.7s-7.1,0.4-7.9,0C55.1,18.1,57.8,16.8,62,16.1z M63.2,38c0.4,0.3,0.8,0.4,1.2,0.4c0.1,0,0.3,0,0.4,0  c1.2-0.2,2-1.3,1.8-2.5c-0.2-1.2-1.3-2-2.5-1.8s-2,1.3-1.8,2.5C62.4,37.1,62.7,37.7,63.2,38z M63.9,35.8c0.1-0.2,0.3-0.3,0.5-0.3  h0.1c0.3,0,0.6,0.2,0.7,0.6l0,0c0,0.4-0.2,0.7-0.6,0.8c-0.4,0-0.7-0.2-0.8-0.6C63.7,36.1,63.8,35.9,63.9,35.8L63.9,35.8z M60.9,51.8  c0.4,0.3,0.8,0.4,1.2,0.4c0.1,0,0.3,0,0.4,0c1.2-0.2,2-1.3,1.8-2.5c-0.2-1.2-1.3-2-2.5-1.8c-1.2,0.2-2,1.3-1.8,2.5  C60.1,51,60.5,51.5,60.9,51.8L60.9,51.8z M61.6,49.6c0.1-0.2,0.3-0.3,0.5-0.3h0.1c0.3,0,0.6,0.2,0.7,0.6l0,0  c0.1,0.4-0.2,0.7-0.6,0.8s-0.7-0.2-0.8-0.6C61.5,50,61.5,49.8,61.6,49.6L61.6,49.6z M65.4,44.2c0.3,1.5,1.7,2.5,3.2,2.3  c1.5-0.3,2.5-1.7,2.3-3.2c-0.3-1.5-1.7-2.5-3.2-2.3c0,0,0,0,0,0C66.1,41.3,65.1,42.7,65.4,44.2L65.4,44.2z M67.9,42.5h0.2  c0.7,0,1.3,0.5,1.3,1.2c0,0.7-0.5,1.3-1.2,1.3s-1.3-0.5-1.3-1.2C66.9,43.2,67.3,42.6,67.9,42.5L67.9,42.5z M69.7,50  c-1.5,0.3-2.5,1.7-2.2,3.2c0.2,1.3,1.4,2.2,2.7,2.2c0.2,0,0.3,0,0.5,0c1.5-0.3,2.5-1.7,2.3-3.2C72.7,50.8,71.2,49.8,69.7,50L69.7,50  z M71.4,52.5c0.1,0.7-0.3,1.4-1,1.5s-1.4-0.3-1.5-1s0.3-1.4,1-1.5c0,0,0,0,0,0h0.2C70.8,51.5,71.3,52,71.4,52.5L71.4,52.5z   M37.8,5.5c-1-0.2-9.5-1.6-10.1,1.6c0,0.1,0,0.3,0,0.4L25,20c0,0,0,0.1-0.1,0.1L21,39.4c-1,5.4,2.3,10.7,7.6,12.2l-4.8,26.8  c-2.8-0.4-9.2-1.1-9.7,1.5l-0.2,1l2,0.3l0,0l16.2,2.8l0,0l2,0.3l0.2-1c0.3-1.5-1.6-2.4-3-3.1c-1.8-0.7-3.6-1.3-5.5-1.6L30.6,52  c0.3,0,0.6,0,0.9,0c5.2,0,9.6-3.7,10.4-8.8l4.7-32.4c0.1-0.1,0.1-0.3,0.1-0.4C47.3,7.2,38.7,5.6,37.8,5.5z M22.9,39.9l3.8-18  l15.8,2.8l-2.6,18c-0.8,4.7-5.3,7.8-10,7c-4-0.7-7-4.1-7.1-8.2C22.8,40.9,22.8,40.4,22.9,39.9z M42.8,22.6l-15.7-3l2.1-10.1  c0.4,0.2,0.8,0.5,1.2,0.6c2,0.9,4.1,1.5,6.2,1.8c1.7,0.3,3.3,0.4,5,0.5c0.9,0,1.8-0.1,2.7-0.2L42.8,22.6z M37.4,7.4  c4,0.7,6.6,2,7.2,2.6c-0.8,0.4-3.5,0.7-7.7,0s-6.6-2-7.2-2.6C30.5,7,33.2,6.7,37.4,7.4z M24.5,80.6c1.1,0.2,2.1,0.4,3,0.7l-6.1-1.1  C22.3,80.2,23.4,80.4,24.5,80.6z M34.7,29.1c0.1,0,0.3,0,0.4,0c1.2,0,2.1-1,2.1-2.2c0-1.2-1-2.1-2.2-2.1c-0.4,0-0.8,0.1-1.2,0.4  c-1,0.7-1.3,2-0.6,3C33.5,28.7,34.1,29,34.7,29.1z M34.4,26.9c0.1-0.3,0.3-0.5,0.6-0.5h0.1c0.4,0.1,0.6,0.4,0.5,0.8  c-0.1,0.4-0.4,0.6-0.8,0.5C34.5,27.6,34.3,27.2,34.4,26.9C34.3,26.9,34.3,26.9,34.4,26.9L34.4,26.9L34.4,26.9z M31,37  c1.5,0.2,2.9-0.7,3.1-2.2s-0.7-2.9-2.2-3.1c-0.7-0.1-1.4,0-2,0.4c-1.2,0.9-1.5,2.5-0.7,3.8C29.6,36.5,30.3,36.9,31,37z M30.8,33.3  c0.2-0.1,0.4-0.2,0.7-0.2h0.2c0.7,0.1,1.1,0.7,1,1.4c-0.1,0.7-0.7,1.1-1.4,1l0,0c-0.7-0.1-1.1-0.8-1-1.4  C30.4,33.8,30.5,33.5,30.8,33.3L30.8,33.3z M28.9,45.8c0.2,0,0.3,0,0.5,0c1.5-0.1,2.6-1.5,2.5-2.9c-0.1-1.5-1.5-2.6-2.9-2.5  c-1.5,0.1-2.6,1.5-2.5,2.9C26.6,44.7,27.6,45.7,28.9,45.8z M28.7,42.2c0.5-0.4,1.3-0.2,1.7,0.3s0.2,1.3-0.3,1.7  c-0.5,0.4-1.3,0.2-1.7-0.3c-0.2-0.3-0.3-0.6-0.2-0.9C28.3,42.6,28.5,42.4,28.7,42.2L28.7,42.2z"></path></svg>